<svg xmlns="http://www.w3.org/2000/svg" viewBox="0 0 24 24" width="100%" height="100%">
  <defs>
    <!-- Gradient to top right: matching the Confessly logo's bg-gradient-to-tr from-indigo-500 via-purple-500 to-pink-500 -->
    <linearGradient id="confessly-gradient" x1="0%" y1="100%" x2="100%" y2="0%">
      <stop offset="0%" stop-color="#6366f1" />
      <stop offset="50%" stop-color="#a855f7" />
      <stop offset="100%" stop-color="#ec4899" />
    </linearGradient>
  </defs>
  <!-- Rounded background rectangle -->
  <rect x="0" y="0" width="24" height="24" rx="6" fill="url(#confessly-gradient)" />
  <!-- Sparkles paths (Lucide-react Sparkles) centered and scaled -->
  <g transform="translate(5.4, 5.4) scale(0.55)" fill="none" stroke="white" stroke-width="2.5" stroke-linecap="round" stroke-linejoin="round">
    <!-- Main Sparkle -->
    <path d="m12 3-1.912 5.813a2 2 0 0 1-1.275 1.275L3 12l5.813 1.912a2 2 0 0 1 1.275 1.275L12 21l1.912-5.813a2 2 0 0 1 1.275-1.275L21 12l-5.813-1.912a2 2 0 0 1-1.275-1.275L12 3Z" />
    <!-- Top Left Sparkle -->
    <path d="m5 3 1 2.5L8.5 6 6 7 5 9.5 4 7 1.5 6 4 5.5z" fill="white" />
    <!-- Bottom Right Sparkle -->
    <path d="m19 17 1 2.5 2.5.5-2.5 1-1 2.5-1-2.5-2.5-1 2.5-1z" fill="white" />
  </g>
</svg>
